# xmcd CD database file
#
# Track frame offsets:
#	150
#	13332
#	24090
#	35537
#	48152
#	59072
#	69985
#	84445
#	102235
#	112990
#	131405
#	141770
#	156345
#
# Disc length: 2227 seconds
#
# Revision: 0
# Processed by: cddbd v1.5.2PL0 Copyright (c) Steve Scherf et al.
# Submitted via: CDex 1.70beta2
#
DISCID=a708b10d
DTITLE=Charlie Byrd - Brazilian Byrd
DYEAR=1965
DGENRE=Jazz
TTITLE0=Corcovado
TTITLE1=Jazz 'N' Samba (So Danco Samba)
TTITLE2=That Look You Wear (Este Seu Olhar)
TTITLE3=The Girl From Ipanema
TTITLE4=Samba Do Aviao (Song Of The Jet)
TTITLE5=Engano
TTITLE6=O Amor Em Paz
TTITLE7=Dindi
TTITLE8=Cancao Do Amor Demais
TTITLE9=As Praias Desertas
TTITLE10=Samba Torto
TTITLE11=Someone TO Light Up My Life(Se Todos Fossem Iguais A Voce)
TTITLE12=ENGANO(another Take)
EXTD=YEAR: 1965
EXTT0=
EXTT1=
EXTT2=
EXTT3=
EXTT4=
EXTT5=
EXTT6=
EXTT7=
EXTT8=
EXTT9=
EXTT10=
EXTT11=
EXTT12=
PLAYORDER=
